<?xml version="1.0" encoding="UTF-8" standalone="no"?>
<!-- Uploaded to: SVG Repo, www.svgrepo.com, Generator: SVG Repo Mixer Tools -->

<svg
   width="704"
   height="350.39999"
   viewBox="0 0 44 21.9"
   id="Layer_1"
   version="1.1"
   xml:space="preserve"
   sodipodi:docname="free-price-tag.svg"
   inkscape:version="1.4.4 (1:1.4.4+202605061432+dcaf3e7d9e)"
   xmlns:inkscape="http://www.inkscape.org/namespaces/inkscape"
   xmlns:sodipodi="http://sodipodi.sourceforge.net/DTD/sodipodi-0.dtd"
   xmlns="http://www.w3.org/2000/svg"
   xmlns:svg="http://www.w3.org/2000/svg"><defs
   id="defs7" /><sodipodi:namedview
   id="namedview7"
   pagecolor="#ffffff"
   bordercolor="#666666"
   borderopacity="1.0"
   inkscape:showpageshadow="2"
   inkscape:pageopacity="0.0"
   inkscape:pagecheckerboard="0"
   inkscape:deskcolor="#d1d1d1"
   inkscape:zoom="0.35664698"
   inkscape:cx="78.509006"
   inkscape:cy="144.40049"
   inkscape:window-width="1850"
   inkscape:window-height="1016"
   inkscape:window-x="70"
   inkscape:window-y="27"
   inkscape:window-maximized="1"
   inkscape:current-layer="g7" />

<style
   type="text/css"
   id="style1">
	.st0{fill:#EC6E62;}
	.st1{fill:#656766;}
	.st2{fill:#FFFFFF;}
</style>

<g
   id="g7"
   transform="translate(-1,-6.1)">

<g
   id="g1">

<path
   class="st0"
   d="M 44.7,16 39.5,7.1 c -0.4,-0.6 -1.1,-1 -1.8,-1 H 2.7 C 1.8,6.1 1,6.9 1,7.8 v 18.5 c 0,1 0.8,1.7 1.7,1.7 h 35 c 0.7,0 1.4,-0.4 1.8,-1 l 5.2,-8.9 c 0.4,-0.6 0.4,-1.4 0,-2.1 z m -6.1,3.1 c -1.1,0 -2,-0.9 -2,-2 0,-1.1 0.9,-2 2,-2 1.1,0 2,0.9 2,2 0,1.1 -0.9,2 -2,2 z"
   id="path1" />

</g>



<g
   id="g6">

<path
   class="st2"
   d="m 7.8,14.6 v 1.9 H 11 v 1.1 H 7.8 v 2.9 H 6.6 v -7.1 h 4.7 v 1.1 H 7.8 Z"
   id="path3" />

<path
   class="st2"
   d="m 18.4,15.8 c 0,1.2 -0.5,1.9 -1.5,2.2 l 1.9,2.6 H 17.3 L 15.6,18.2 H 14 v 2.4 h -1.2 v -7.1 h 2.6 c 1.1,0 1.9,0.2 2.3,0.5 0.5,0.4 0.7,1 0.7,1.8 z m -1.6,1 c 0.2,-0.2 0.4,-0.5 0.4,-1 0,-0.5 -0.1,-0.8 -0.4,-1 -0.3,-0.2 -0.7,-0.3 -1.3,-0.3 H 14 V 17 h 1.5 c 0.6,0.1 1.1,0 1.3,-0.2 z"
   id="path4" />

<path
   class="st2"
   d="m 25.1,13.5 v 1.1 h -3.8 v 1.9 h 3.4 v 1.1 h -3.4 v 1.9 h 3.9 v 1.1 h -5.1 v -7.1 z"
   id="path5" />

<path
   class="st2"
   d="m 31.8,13.5 v 1.1 H 28 v 1.9 h 3.4 v 1.1 H 28 v 1.9 h 3.9 v 1.1 h -5.1 v -7.1 z"
   id="path6" />

</g>

</g>

</svg>
