<?xml version="1.0" encoding="UTF-8" standalone="no"?>
<!-- Uploaded to: SVG Repo, www.svgrepo.com, Generator: SVG Repo Mixer Tools -->

<svg
   width="799.99292"
   height="183.96358"
   viewBox="0 -197 511.99547 117.73669"
   version="1.1"
   preserveAspectRatio="xMidYMid"
   id="svg5"
   sodipodi:docname="google-play-svgrepo-com.svg"
   inkscape:version="1.4.4 (1:1.4.4+202605061432+dcaf3e7d9e)"
   xmlns:inkscape="http://www.inkscape.org/namespaces/inkscape"
   xmlns:sodipodi="http://sodipodi.sourceforge.net/DTD/sodipodi-0.dtd"
   xmlns="http://www.w3.org/2000/svg"
   xmlns:svg="http://www.w3.org/2000/svg">
  <defs
     id="defs5" />
  <sodipodi:namedview
     id="namedview5"
     pagecolor="#ffffff"
     bordercolor="#666666"
     borderopacity="1.0"
     inkscape:showpageshadow="2"
     inkscape:pageopacity="0.0"
     inkscape:pagecheckerboard="0"
     inkscape:deskcolor="#d1d1d1"
     inkscape:zoom="1.00875"
     inkscape:cx="400"
     inkscape:cy="91.697646"
     inkscape:window-width="1850"
     inkscape:window-height="1016"
     inkscape:window-x="70"
     inkscape:window-y="27"
     inkscape:window-maximized="1"
     inkscape:current-layer="svg5" />
  <g
     id="g5"
     transform="translate(0,-197)">
    <g
       id="g4">
      <path
         d="m 81.281306,77.002908 c 13.973135,-7.672504 24.566554,-13.518871 25.479624,-13.973134 2.92091,-1.55358 5.93722,-5.664662 0,-8.858132 C 104.84394,53.167721 94.523077,47.503059 81.281306,40.198508 L 62.924532,58.736987 Z"
         fill="#ffd900"
         id="path1" />
      <path
         d="M 62.924532,58.736987 4.4744921,117.64583 c 1.3718747,0.18171 2.920912,-0.1817 4.7470499,-1.18562 3.833981,-2.0987 44.476905,-24.293998 72.059764,-39.452759 z"
         fill="#f43249"
         id="path2" />
      <path
         d="M 62.924532,58.736987 81.281306,40.28936 c 0,0 -67.948682,-37.081501 -72.059764,-39.2710494 C 7.6725047,0.10069902 5.9372194,-0.17185887 4.3836394,0.10069902 Z"
         fill="#00ee76"
         id="path3" />
      <path
         d="M 62.924532,58.736987 4.3836394,0.10069902 C 2.0078431,0.65035744 0,2.7490532 0,7.04184 c 0,6.850288 0,97.99819 0,103.66285 0,3.92938 1.55358,6.75944 4.4744921,7.03199 z"
         fill="#00d3ff"
         id="path4" />
    </g>
    <path
       d="m 253.53335,47.044253 c -10.50256,0 -19.17899,8.126768 -19.17899,19.269843 0,11.052223 8.58557,19.269843 19.17899,19.269843 10.59342,0 19.17899,-8.126768 19.17899,-19.269843 0,-11.143075 -8.58557,-19.269843 -19.17899,-19.269843 z m 0,30.871724 c -5.75551,0 -10.77512,-4.842445 -10.77512,-11.688191 0,-6.941141 5.02415,-11.688191 10.77512,-11.688191 5.75097,0 10.77512,4.74705 10.77512,11.688191 0,6.845746 -5.02415,11.688191 -10.77512,11.688191 z m -41.7377,-30.871724 c -10.59341,0 -19.17899,8.126768 -19.17899,19.269843 0,11.052223 8.58558,19.269843 19.17899,19.269843 10.59342,0 19.17899,-8.126768 19.17899,-19.269843 0,-11.143075 -8.58557,-19.269843 -19.17899,-19.269843 z m 0,30.871724 c -5.75551,0 -10.77512,-4.842445 -10.77512,-11.688191 0,-6.941141 5.02415,-11.688191 10.77512,-11.688191 5.75552,0 10.77512,4.74705 10.77512,11.688191 0,6.845746 -4.93329,11.688191 -10.77512,11.688191 z M 162.20374,52.981473 v 8.126767 h 19.3607 c -0.54966,4.565345 -2.0987,7.945063 -4.38364,10.230007 -2.83006,2.830059 -7.2137,5.937219 -14.97706,5.937219 -11.96529,0 -21.18683,-9.680348 -21.18683,-21.645639 0,-11.965292 9.22608,-21.827345 21.18683,-21.827345 6.48234,0 11.14308,2.557502 14.61365,5.846367 l 5.75097,-5.755514 c -4.84244,-4.656197 -11.32478,-8.21762 -20.36462,-8.21762 -16.34893,0 -30.0495,13.423476 -30.0495,29.772407 0,16.348931 13.70057,29.772407 30.0495,29.772407 8.85814,0 15.43587,-2.920912 20.73257,-8.403869 5.38756,-5.387561 7.032,-12.969213 7.032,-19.088137 0,-1.916991 -0.18171,-3.652276 -0.45881,-5.115003 z m 202.93298,6.30063 c -1.55358,-4.292787 -6.48233,-12.23785 -16.34893,-12.23785 -9.86659,0 -17.99336,7.763358 -17.99336,19.269843 0,10.775122 8.12677,19.269843 18.90643,19.269843 8.76728,0 13.79143,-5.387561 15.89013,-8.494721 l -6.48234,-4.383639 c -2.19409,3.198012 -5.115,5.296708 -9.40779,5.296708 -4.29279,0 -7.30455,-1.91699 -9.22608,-5.846367 L 365.9544,61.471651 Z M 339.1983,65.76898 c -0.18171,-7.399946 5.75551,-11.233927 9.9529,-11.233927 3.37972,0 6.11893,1.644432 7.12285,4.111081 z m -20.73257,18.53848 h 8.40386 V 27.865263 h -8.40386 z M 304.76969,51.33704 h -0.27256 c -1.91699,-2.284944 -5.47841,-4.292787 -10.0483,-4.292787 -9.58949,0 -18.26592,8.494721 -18.26592,19.269843 0,10.775122 8.76728,19.178991 18.26592,19.178991 4.56535,0 8.12677,-2.007844 10.0483,-4.38364 h 0.27256 v 2.739207 c 0,7.399947 -3.92937,11.32478 -10.23,11.32478 -5.11501,0 -8.31302,-3.743128 -9.5895,-6.850288 l -7.30455,3.10716 c 2.09869,5.115003 7.6725,11.415634 16.89405,11.415634 9.86205,0 18.17507,-5.846368 18.17507,-20.001208 V 48.22988 h -7.94507 z m -9.58949,26.578937 c -5.75552,0 -10.59342,-4.842445 -10.59342,-11.597338 0,-6.754893 4.84244,-11.688191 10.59342,-11.688191 5.66466,0 10.23,4.933298 10.23,11.688191 -0.005,6.66404 -4.56988,11.597338 -10.23,11.597338 z M 404.31692,27.865263 H 384.22486 V 84.30746 h 8.40387 V 62.934378 h 11.68819 c 9.31694,0 18.44763,-6.759435 18.44763,-17.534557 0,-10.775122 -9.13069,-17.534558 -18.44763,-17.534558 z m 0.27256,27.219448 H 392.71504 V 35.719473 h 11.87444 c 6.20978,0 9.86205,5.205856 9.86205,9.680348 -0.0863,4.383639 -3.64773,9.68489 -9.86205,9.68489 z m 51.69514,-8.13131 c -6.02807,0 -12.3287,2.648354 -14.8862,8.676426 l 7.39995,3.10716 c 1.64443,-3.10716 4.56534,-4.111082 7.6725,-4.111082 4.38364,0 8.76728,2.648354 8.85813,7.304552 v 0.549658 c -1.55358,-0.913069 -4.74705,-2.194091 -8.76727,-2.194091 -8.03592,0 -16.16723,4.474492 -16.16723,12.696655 0,7.581652 6.57773,12.419555 13.88228,12.419555 5.66466,0 8.76728,-2.557502 10.68427,-5.569266 h 0.27256 v 4.383639 h 8.12677 V 62.570968 c -0.0909,-9.952906 -7.48626,-15.617567 -17.07576,-15.617567 z m -1.00392,30.871723 c -2.7392,0 -6.57773,-1.371874 -6.57773,-4.747049 0,-4.38364 4.74705,-6.028072 8.85813,-6.028072 3.65228,0 5.38756,0.822216 7.67251,1.91699 -0.64051,5.205856 -5.11501,8.858131 -9.95291,8.858131 z m 47.39782,-29.590701 -9.5895,24.384846 h -0.27255 l -9.95291,-24.384846 h -9.03983 l 14.97705,34.156046 -8.49472,19.088141 h 8.76728 L 511.99546,48.234423 Z M 427.42529,84.30746 h 8.40386 V 27.865263 h -8.40386 z"
       fill="#808285"
       id="path5" />
  </g>
</svg>
