<?xml version="1.0" encoding="UTF-8" standalone="no"?>
<!-- Created with Inkscape (http://www.inkscape.org/) -->

<svg
   version="1.1"
   id="svg1"
   width="512"
   height="512"
   viewBox="0 0 512 512"
   sodipodi:docname="x.svg"
   inkscape:version="1.4.4 (1:1.4.4+202605061432+dcaf3e7d9e)"
   xmlns:inkscape="http://www.inkscape.org/namespaces/inkscape"
   xmlns:sodipodi="http://sodipodi.sourceforge.net/DTD/sodipodi-0.dtd"
   xmlns="http://www.w3.org/2000/svg"
   xmlns:svg="http://www.w3.org/2000/svg">
  <defs
     id="defs1" />
  <sodipodi:namedview
     id="namedview1"
     pagecolor="#ffffff"
     bordercolor="#666666"
     borderopacity="1.0"
     inkscape:showpageshadow="2"
     inkscape:pageopacity="0.0"
     inkscape:pagecheckerboard="0"
     inkscape:deskcolor="#d1d1d1"
     inkscape:zoom="1.5761719"
     inkscape:cx="255.68278"
     inkscape:cy="256"
     inkscape:window-width="1850"
     inkscape:window-height="1016"
     inkscape:window-x="70"
     inkscape:window-y="27"
     inkscape:window-maximized="1"
     inkscape:current-layer="g1" />
  <g
     inkscape:groupmode="layer"
     inkscape:label="Image"
     id="g1">
    <path
       style="fill:#000000"
       d="M 232.5,510.94573 C 180.53544,505.58752 132.87553,485.92761 93.721733,453.69912 44.753558,413.39216 12.185931,356.00111 2.9347268,293.71322 -7.2060152,225.4361 10.234325,157.40007 52.326388,101.03275 61.488855,88.762887 88.762887,61.488855 101.03275,52.326388 170.92479,0.13479236 259.5391,-13.844902 340.85294,14.492623 c 53.42237,18.617469 101.61695,57.270246 132.32258,106.124697 18.30153,29.1188 31.40486,65.38985 36.44503,100.88268 2.55206,17.97156 2.55206,51.02844 0,69 -6.2199,43.8005 -23.08993,84.50474 -49.90522,120.412 -9.21544,12.34001 -36.46332,39.58789 -48.80333,48.80333 -35.2159,26.29898 -74.81064,42.98249 -117.19878,49.38247 -15.30708,2.31115 -47.34202,3.27823 -61.21322,1.84793 z m -47.51676,-163.1295 c 27.23422,-31.72608 49.76294,-57.71358 50.06383,-57.75 C 235.34796,290.0298 253.51692,316.1 275.42255,348 l 39.82841,58 h 43.95776 43.95777 l -5.40842,-7.75 C 380.31942,373.26124 285.07828,234.22177 284.81563,233.36896 284.64203,232.8053 308.8,204.1009 338.5,169.5814 c 29.7,-34.5195 54.15459,-63.18569 54.34353,-63.70264 0.20636,-0.56464 -4.77989,-0.82789 -12.48861,-0.65934 L 367.52279,105.5 338.71565,139 c -15.84393,18.425 -37.22,43.26906 -47.50237,55.20902 -10.28238,11.93996 -18.96663,21.38996 -19.29834,21 -0.33171,-0.38996 -17.37438,-25.15525 -37.8726,-55.03399 -20.49821,-29.87873 -37.78088,-54.52117 -38.40591,-54.76098 -0.62504,-0.23981 -20.40908,-0.31858 -43.96453,-0.17504 l -42.8281,0.26099 30.90314,45 c 16.99672,24.75 42.83419,62.36906 57.4166,83.59791 l 26.51345,38.59791 -30.08849,34.99139 c -16.54868,19.24527 -42.35784,49.25182 -57.3537,66.68123 l -27.26521,31.68982 13.24844,-0.27913 L 135.46647,405.5 Z M 266.36927,299.75 C 154.46656,139.7293 145,126.14182 145,125.54707 c 0,-0.32414 8.85336,-0.46734 19.67413,-0.31821 L 184.34827,125.5 275.63687,256 c 50.20873,71.775 91.30537,130.8375 91.32586,131.25 0.0205,0.4125 -8.71914,0.75 -19.42142,0.75 h -19.45868 z"
       id="path1" />
  </g>
</svg>
